<svg viewBox="0 0 35 35" xmlns="http://www.w3.org/2000/svg" xmlns:xlink="http://www.w3.org/1999/xlink"><style>:root&gt;svg{display:none}:root&gt;svg:target{display:block}</style><svg viewBox="0 0 18 18" id="call"><path d="M16.555 11.816a10.17 10.17 0 01-3.207-.511c-.504-.172-1.121-.016-1.43.3l-2.023 1.528c-2.348-1.254-3.793-2.7-5.028-5.028l1.48-1.972c.387-.383.528-.946.36-1.473a10.254 10.254 0 01-.512-3.215C6.195.648 5.547 0 4.75 0H1.445C.648 0 0 .648 0 1.445 0 10.575 7.426 18 16.555 18c.797 0 1.445-.648 1.445-1.445v-3.297c0-.797-.648-1.442-1.445-1.442zm0 0"/></svg><svg viewBox="0 0 26 26" id="chat"><path d="M4.332 11.035h5.633a.433.433 0 100-.867H4.332a.435.435 0 00-.434.434c0 .238.196.433.434.433zm11.27 1.735H4.332a.433.433 0 100 .867h11.27a.433.433 0 100-.867zm0 2.597H4.332a.435.435 0 00-.434.434c0 .238.196.433.434.433h11.27a.435.435 0 00.433-.433.435.435 0 00-.433-.434zm0 0"/><path d="M23.43 1.098L8.637 1.066a2.575 2.575 0 00-2.57 2.57V5.86l-3.497.008A2.572 2.572 0 000 8.434v9.164a2.572 2.572 0 002.57 2.566H5.2V24.5c0 .18.109.34.277.402a.424.424 0 00.477-.113l4.206-4.625 7.203-.027a2.572 2.572 0 002.57-2.57v-.051l2.278 2.507a.439.439 0 00.324.145c.05 0 .102-.012.152-.031a.43.43 0 00.278-.403v-4.336h.465A2.572 2.572 0 0026 12.832V3.668a2.572 2.572 0 00-2.57-2.57zm-4.364 16.468c0 .938-.765 1.704-1.703 1.704l-7.398.027a.454.454 0 00-.32.144L6.066 23.38v-3.65a.435.435 0 00-.433-.433H2.57a1.701 1.701 0 01-1.703-1.7V8.435c0-.938.762-1.704 1.703-1.704l3.93-.007L17.363 6.7c.938 0 1.703.766 1.703 1.703zm6.067-4.738c0 .942-.762 1.703-1.703 1.703h-.895a.433.433 0 00-.433.434v3.644l-2.168-2.382v-7.82a2.572 2.572 0 00-2.57-2.571l-10.43.02v-2.22c0-.937.765-1.702 1.703-1.702l14.793.03c.941 0 1.703.766 1.703 1.704zm0 0"/></svg><svg viewBox="0 0 20 20" id="clock"><path d="M10 0C4.484 0 0 4.484 0 10s4.484 10 10 10 10-4.484 10-10S15.516 0 10 0zm0 18.75c-4.824 0-8.75-3.926-8.75-8.75S5.176 1.25 10 1.25s8.75 3.926 8.75 8.75-3.926 8.75-8.75 8.75zm0 0"/><path d="M10.625 3.75h-1.25v6.508l3.934 3.933.882-.882-3.566-3.567zm0 0"/></svg><svg viewBox="0 0 15 15" id="curved"><path d="M14.816 5.387L8.606.992a.44.44 0 00-.696.356v2.207C3.508 3.785 0 7.437 0 11.895v1.757c0 .22.16.407.379.434a.44.44 0 00.484-.313l.067-.238a7.755 7.755 0 016.98-5.582v2.184a.442.442 0 00.695.36l6.211-4.395a.455.455 0 00.184-.36.44.44 0 00-.184-.355zm0 0"/></svg><svg viewBox="0 0 10 17" id="fb"><path d="M8.783.211L6.784.208c-2.246 0-3.697 1.492-3.697 3.8v1.753h-2.01a.315.315 0 00-.315.315v2.539c0 .174.141.315.315.315h2.01v6.406c0 .174.14.315.314.315h2.623a.315.315 0 00.314-.315V8.93h2.35a.314.314 0 00.314-.315l.001-2.54a.316.316 0 00-.314-.314H6.338V4.275c0-.713.17-1.076 1.098-1.076h1.347a.315.315 0 00.314-.315V.526a.315.315 0 00-.314-.315z"/></svg><svg viewBox="0 0 18 18" id="inst"><path fill-rule="evenodd" clip-rule="evenodd" d="M5.813.5h6.375A5.313 5.313 0 0117.5 5.813v6.375a5.313 5.313 0 01-5.313 5.312H5.814A5.313 5.313 0 01.5 12.187V5.814A5.313 5.313 0 015.813.5zm6.375 15.406a3.723 3.723 0 003.718-3.719V5.814a3.723 3.723 0 00-3.719-3.72H5.814a3.723 3.723 0 00-3.72 3.72v6.375a3.723 3.723 0 003.72 3.718h6.375z"/><path fill-rule="evenodd" clip-rule="evenodd" d="M4.75 9a4.25 4.25 0 118.5 0 4.25 4.25 0 01-8.5 0zm1.594 0A2.66 2.66 0 009 11.656 2.66 2.66 0 0011.656 9 2.66 2.66 0 009 6.344 2.66 2.66 0 006.344 9z"/><path d="M13.604 5.458a1.063 1.063 0 100-2.125 1.063 1.063 0 000 2.125z"/></svg><svg viewBox="0 0 35 35" id="left"><path fill-rule="evenodd" clip-rule="evenodd" d="M34.83 18.601H5.125l14.27 14.341-1.641 1.65L.68 17.435 17.756.275l1.642 1.65L5.125 16.268H34.83v2.333z"/></svg><svg viewBox="0 0 14 14" id="left-icon"><mask id="ha" maskUnits="userSpaceOnUse" x="0" y="0" width="14" height="14"><path fill-rule="evenodd" clip-rule="evenodd" d="M13.4 6.2H3.664l4.472-4.472L7 .6.6 7 7 13.4l1.128-1.128L3.664 7.8H13.4V6.2z"/></mask><g mask="url(#ha)"><path d="M-3.4-3.4h20.8v20.8H-3.4z"/></g></svg><svg viewBox="0 0 18 18" id="nav"><path d="M17.645.066a.645.645 0 00-.575 0L.355 8.426a.646.646 0 00-.289.863.65.65 0 00.461.344L7.16 10.84l1.207 6.633a.643.643 0 001.207.172L17.934.93a.648.648 0 00-.29-.864zm0 0"/></svg><svg viewBox="0 0 35 35" id="right"><path fill-rule="evenodd" clip-rule="evenodd" d="M34.15 17.435L17.073 34.594l-1.642-1.65 14.27-14.34H0V16.27h29.705L15.432 1.925l1.641-1.65 17.076 17.16z"/></svg><svg viewBox="0 0 16 16" id="slide-arrow"><path d="M15.227 7.355H.645a.645.645 0 000 1.29h14.582a.645.645 0 000-1.29zm0 0"/><path d="M15.813 7.543L9.508 1.238a.646.646 0 00-.91 0 .639.639 0 000 .91L14.445 8l-5.847 5.852a.639.639 0 000 .91.638.638 0 00.453.187.655.655 0 00.457-.187l6.305-6.309a.646.646 0 000-.91zm0 0"/></svg><svg viewBox="0 0 16 14" id="tw"><path d="M15.792 2.134a6.344 6.344 0 01-1.837.507A3.224 3.224 0 0015.361.86a6.374 6.374 0 01-2.03.78A3.184 3.184 0 0010.997.625C9.23.625 7.8 2.066 7.8 3.844c0 .252.028.498.083.733a9.055 9.055 0 01-6.59-3.363A3.222 3.222 0 00.86 2.832c0 1.117.565 2.102 1.422 2.68a3.158 3.158 0 01-1.448-.404v.041c0 1.56 1.102 2.86 2.565 3.156a3.166 3.166 0 01-1.444.056 3.203 3.203 0 002.987 2.235 6.388 6.388 0 01-4.734 1.333 9 9 0 004.9 1.446c5.881 0 9.097-4.905 9.097-9.158a9.6 9.6 0 00-.009-.417 6.508 6.508 0 001.596-1.666z"/></svg><svg viewBox="0 0 22 22" id="view"><path d="M21.86 10.57c-.196-.265-4.88-6.582-10.86-6.582C5.02 3.988.336 10.305.14 10.57a.727.727 0 000 .86c.196.265 4.88 6.582 10.86 6.582 5.98 0 10.664-6.317 10.86-6.582a.727.727 0 000-.86zM11 16.56c-4.406 0-8.223-4.188-9.352-5.559 1.13-1.372 4.938-5.56 9.352-5.56 4.406 0 8.219 4.188 9.352 5.559-1.13 1.371-4.938 5.559-9.352 5.559zm0 0"/><path d="M11 6.648A4.358 4.358 0 006.648 11 4.358 4.358 0 0011 15.352 4.358 4.358 0 0015.352 11 4.358 4.358 0 0011 6.648zm0 7.254A2.904 2.904 0 018.098 11a2.903 2.903 0 015.804 0c0 1.602-1.3 2.902-2.902 2.902zm0 0"/></svg></svg>