<svg xmlns="http://www.w3.org/2000/svg" width="26pt" height="26pt" viewBox="0 0 26 26"><g id="surface1"><path d="M4.332 11.035h5.633a.433.433 0 100-.867H4.332a.435.435 0 00-.434.434c0 .238.196.433.434.433zm11.27 1.735H4.332a.433.433 0 100 .867h11.27a.433.433 0 100-.867zm0 2.597H4.332a.435.435 0 00-.434.434c0 .238.196.433.434.433h11.27a.435.435 0 00.433-.433.435.435 0 00-.433-.434zm0 0"/><path d="M23.43 1.098L8.637 1.066a2.575 2.575 0 00-2.57 2.57V5.86l-3.497.008A2.572 2.572 0 000 8.434v9.164a2.572 2.572 0 002.57 2.566H5.2V24.5c0 .18.109.34.277.402a.424.424 0 00.477-.113l4.206-4.625 7.203-.027a2.572 2.572 0 002.57-2.57v-.051l2.278 2.507a.439.439 0 00.324.145c.05 0 .102-.012.152-.031a.43.43 0 00.278-.403v-4.336h.465A2.572 2.572 0 0026 12.832V3.668a2.572 2.572 0 00-2.57-2.57zm-4.364 16.468c0 .938-.765 1.704-1.703 1.704l-7.398.027a.454.454 0 00-.32.144L6.066 23.38v-3.65a.435.435 0 00-.433-.433H2.57a1.701 1.701 0 01-1.703-1.7V8.435c0-.938.762-1.704 1.703-1.704l3.93-.007L17.363 6.7c.938 0 1.703.766 1.703 1.703zm6.067-4.738c0 .942-.762 1.703-1.703 1.703h-.895a.433.433 0 00-.433.434v3.644l-2.168-2.382v-7.82a2.572 2.572 0 00-2.57-2.571l-10.43.02v-2.22c0-.937.765-1.702 1.703-1.702l14.793.03c.941 0 1.703.766 1.703 1.704zm0 0"/></g></svg>