<svg xmlns="http://www.w3.org/2000/svg" width="20" height="20" viewBox="0 0 15 15"><defs><linearGradient id="linear0" gradientUnits="userSpaceOnUse" x1="256" y1="481.01" x2="256" y2="30.99" gradientTransform="scale(.0293)"><stop offset="0" stop-color="#5558ff"/><stop offset="1" stop-color="#00c0ff"/></linearGradient></defs><path d="M14.816 5.387L8.606.992a.44.44 0 00-.696.356v2.207C3.508 3.785 0 7.437 0 11.895v1.757c0 .22.16.407.379.434a.44.44 0 00.484-.313l.067-.238a7.755 7.755 0 016.98-5.582v2.184a.442.442 0 00.695.36l6.211-4.395a.455.455 0 00.184-.36.44.44 0 00-.184-.355zm0 0" fill="url(#linear0)" id="surface1"/></svg>