<svg xmlns="http://www.w3.org/2000/svg" width="22pt" height="22pt" viewBox="0 0 22 22"><g id="surface1"><path d="M21.86 10.57c-.196-.265-4.88-6.582-10.86-6.582C5.02 3.988.336 10.305.14 10.57a.727.727 0 000 .86c.196.265 4.88 6.582 10.86 6.582 5.98 0 10.664-6.317 10.86-6.582a.727.727 0 000-.86zM11 16.56c-4.406 0-8.223-4.188-9.352-5.559 1.13-1.372 4.938-5.56 9.352-5.56 4.406 0 8.219 4.188 9.352 5.559-1.13 1.371-4.938 5.559-9.352 5.559zm0 0"/><path d="M11 6.648A4.358 4.358 0 006.648 11 4.358 4.358 0 0011 15.352 4.358 4.358 0 0015.352 11 4.358 4.358 0 0011 6.648zm0 7.254A2.904 2.904 0 018.098 11a2.903 2.903 0 015.804 0c0 1.602-1.3 2.902-2.902 2.902zm0 0"/></g></svg>