<?xml version="1.0" encoding="UTF-8"?>
<svg xmlns="http://www.w3.org/2000/svg" xmlns:xlink="http://www.w3.org/1999/xlink" width="18pt" height="18pt" viewBox="0 0 18 18" version="1.1">
<g id="surface1">
<path style=" stroke:none;fill-rule:nonzero;fill:rgb(0%,0%,0%);fill-opacity:1;" d="M 16.554688 11.816406 C 15.453125 11.816406 14.371094 11.644531 13.347656 11.304688 C 12.84375 11.132812 12.226562 11.289062 11.917969 11.605469 L 9.894531 13.132812 C 7.546875 11.878906 6.101562 10.433594 4.867188 8.105469 L 6.347656 6.132812 C 6.734375 5.75 6.875 5.1875 6.707031 4.660156 C 6.367188 3.628906 6.195312 2.546875 6.195312 1.445312 C 6.195312 0.648438 5.546875 0 4.75 0 L 1.445312 0 C 0.648438 0 0 0.648438 0 1.445312 C 0 10.574219 7.425781 18 16.554688 18 C 17.351562 18 18 17.351562 18 16.554688 L 18 13.257812 C 18 12.460938 17.351562 11.816406 16.554688 11.816406 Z M 16.554688 11.816406 "/>
</g>
</svg>
