<?xml version="1.0" encoding="UTF-8"?>
<svg xmlns="http://www.w3.org/2000/svg" xmlns:xlink="http://www.w3.org/1999/xlink" width="26pt" height="26pt" viewBox="0 0 26 26" version="1.1">
<g id="surface1">
<path style=" stroke:none;fill-rule:nonzero;fill:rgb(0%,0%,0%);fill-opacity:1;" d="M 4.332031 11.035156 L 9.964844 11.035156 C 10.207031 11.035156 10.398438 10.839844 10.398438 10.601562 C 10.398438 10.363281 10.207031 10.167969 9.964844 10.167969 L 4.332031 10.167969 C 4.09375 10.167969 3.898438 10.363281 3.898438 10.601562 C 3.898438 10.839844 4.09375 11.035156 4.332031 11.035156 Z M 4.332031 11.035156 "/>
<path style=" stroke:none;fill-rule:nonzero;fill:rgb(0%,0%,0%);fill-opacity:1;" d="M 15.601562 12.769531 L 4.332031 12.769531 C 4.09375 12.769531 3.898438 12.960938 3.898438 13.203125 C 3.898438 13.441406 4.09375 13.636719 4.332031 13.636719 L 15.601562 13.636719 C 15.839844 13.636719 16.035156 13.441406 16.035156 13.203125 C 16.035156 12.960938 15.839844 12.769531 15.601562 12.769531 Z M 15.601562 12.769531 "/>
<path style=" stroke:none;fill-rule:nonzero;fill:rgb(0%,0%,0%);fill-opacity:1;" d="M 15.601562 15.367188 L 4.332031 15.367188 C 4.09375 15.367188 3.898438 15.5625 3.898438 15.800781 C 3.898438 16.039062 4.09375 16.234375 4.332031 16.234375 L 15.601562 16.234375 C 15.839844 16.234375 16.035156 16.039062 16.035156 15.800781 C 16.035156 15.5625 15.839844 15.367188 15.601562 15.367188 Z M 15.601562 15.367188 "/>
<path style=" stroke:none;fill-rule:nonzero;fill:rgb(0%,0%,0%);fill-opacity:1;" d="M 23.429688 1.097656 L 8.636719 1.066406 C 7.21875 1.066406 6.066406 2.222656 6.066406 3.636719 L 6.066406 5.859375 L 2.570312 5.867188 C 1.152344 5.867188 0 7.019531 0 8.433594 L 0 17.597656 C 0 19.011719 1.152344 20.164062 2.570312 20.164062 L 5.199219 20.164062 L 5.199219 24.5 C 5.199219 24.679688 5.308594 24.839844 5.476562 24.902344 C 5.527344 24.921875 5.582031 24.933594 5.632812 24.933594 C 5.753906 24.933594 5.871094 24.882812 5.953125 24.789062 L 10.160156 20.164062 L 17.363281 20.136719 C 18.78125 20.136719 19.933594 18.984375 19.933594 17.566406 L 19.933594 17.515625 L 22.210938 20.023438 C 22.296875 20.117188 22.414062 20.167969 22.535156 20.167969 C 22.585938 20.167969 22.636719 20.15625 22.6875 20.136719 C 22.855469 20.074219 22.964844 19.910156 22.964844 19.734375 L 22.964844 15.398438 L 23.429688 15.398438 C 24.847656 15.398438 26 14.246094 26 12.832031 L 26 3.667969 C 26 2.25 24.847656 1.097656 23.429688 1.097656 Z M 19.066406 17.566406 C 19.066406 18.503906 18.300781 19.269531 17.363281 19.269531 L 9.964844 19.296875 C 9.84375 19.300781 9.726562 19.351562 9.644531 19.441406 L 6.066406 23.378906 L 6.066406 19.730469 C 6.066406 19.492188 5.871094 19.296875 5.632812 19.296875 L 2.570312 19.296875 C 1.628906 19.296875 0.867188 18.535156 0.867188 17.597656 L 0.867188 8.433594 C 0.867188 7.496094 1.628906 6.730469 2.570312 6.730469 L 6.5 6.722656 L 17.363281 6.699219 C 18.300781 6.699219 19.066406 7.464844 19.066406 8.402344 Z M 25.132812 12.828125 C 25.132812 13.769531 24.371094 14.53125 23.429688 14.53125 L 22.535156 14.53125 C 22.292969 14.53125 22.101562 14.726562 22.101562 14.964844 L 22.101562 18.609375 L 19.933594 16.226562 L 19.933594 8.40625 C 19.933594 6.988281 18.78125 5.835938 17.363281 5.835938 L 6.933594 5.855469 L 6.933594 3.636719 C 6.933594 2.699219 7.699219 1.933594 8.636719 1.933594 L 23.429688 1.964844 C 24.371094 1.964844 25.132812 2.730469 25.132812 3.667969 Z M 25.132812 12.828125 "/>
</g>
</svg>
