<?xml version="1.0" encoding="UTF-8"?>
<svg xmlns="http://www.w3.org/2000/svg" xmlns:xlink="http://www.w3.org/1999/xlink" width="20pt" height="20pt" viewBox="0 0 20 20" version="1.1">
<g id="surface1">
<path style=" stroke:none;fill-rule:nonzero;fill:rgb(0%,0%,0%);fill-opacity:1;" d="M 10 0 C 4.484375 0 0 4.484375 0 10 C 0 15.515625 4.484375 20 10 20 C 15.515625 20 20 15.515625 20 10 C 20 4.484375 15.515625 0 10 0 Z M 10 18.75 C 5.175781 18.75 1.25 14.824219 1.25 10 C 1.25 5.175781 5.175781 1.25 10 1.25 C 14.824219 1.25 18.75 5.175781 18.75 10 C 18.75 14.824219 14.824219 18.75 10 18.75 Z M 10 18.75 "/>
<path style=" stroke:none;fill-rule:nonzero;fill:rgb(0%,0%,0%);fill-opacity:1;" d="M 10.625 3.75 L 9.375 3.75 L 9.375 10.257812 L 13.308594 14.191406 L 14.191406 13.308594 L 10.625 9.742188 Z M 10.625 3.75 "/>
</g>
</svg>
