<?xml version="1.0" encoding="UTF-8"?>
<svg xmlns="http://www.w3.org/2000/svg" xmlns:xlink="http://www.w3.org/1999/xlink" width="15pt" height="15pt" viewBox="0 0 15 15" version="1.1">
<defs>
<linearGradient id="linear0" gradientUnits="userSpaceOnUse" x1="256" y1="481.01" x2="256" y2="30.99" gradientTransform="matrix(0.0292969,0,0,0.0292969,0,0)">
<stop offset="0" style="stop-color:rgb(33.333333%,34.509804%,100%);stop-opacity:1;"/>
<stop offset="1" style="stop-color:rgb(0%,75.294118%,100%);stop-opacity:1;"/>
</linearGradient>
</defs>
<g id="surface1">
<path style=" stroke:none;fill-rule:nonzero;fill:url(#linear0);" d="M 14.816406 5.386719 L 8.605469 0.992188 C 8.46875 0.894531 8.292969 0.882812 8.148438 0.957031 C 8.003906 1.03125 7.910156 1.183594 7.910156 1.347656 L 7.910156 3.554688 C 3.507812 3.785156 0 7.4375 0 11.894531 L 0 13.652344 C 0 13.871094 0.160156 14.058594 0.378906 14.085938 C 0.589844 14.117188 0.800781 13.988281 0.863281 13.773438 L 0.929688 13.535156 C 1.832031 10.382812 4.664062 8.140625 7.910156 7.953125 L 7.910156 10.136719 C 7.910156 10.300781 8.003906 10.453125 8.148438 10.527344 C 8.292969 10.601562 8.46875 10.589844 8.605469 10.496094 L 14.816406 6.101562 C 14.929688 6.015625 15 5.882812 15 5.742188 C 15 5.601562 14.929688 5.46875 14.816406 5.386719 Z M 14.816406 5.386719 "/>
</g>
</svg>
