<?xml version="1.0" encoding="UTF-8"?>
<svg xmlns="http://www.w3.org/2000/svg" xmlns:xlink="http://www.w3.org/1999/xlink" width="15pt" height="15pt" viewBox="0 0 15 15" version="1.1">
<g id="surface1">
<path style=" stroke:none;fill-rule:nonzero;fill:rgb(0%,0%,0%);fill-opacity:1;" d="M 7.441406 9.519531 C 6.308594 9.519531 5.394531 8.601562 5.394531 7.472656 C 5.394531 6.339844 6.308594 5.421875 7.441406 5.421875 C 8.574219 5.421875 9.488281 6.339844 9.488281 7.472656 C 9.488281 8.601562 8.574219 9.519531 7.441406 9.519531 Z M 7.441406 6.589844 C 6.957031 6.589844 6.5625 6.988281 6.5625 7.472656 C 6.5625 7.953125 6.957031 8.347656 7.441406 8.347656 C 7.925781 8.347656 8.320312 7.953125 8.320312 7.472656 C 8.320312 6.988281 7.925781 6.589844 7.441406 6.589844 Z M 10.546875 11.925781 L 9.722656 11.09375 L 7.472656 13.34375 L 5.308594 11.183594 L 4.480469 12.011719 L 7.472656 15 Z M 10.546875 3.074219 L 7.472656 0 L 4.453125 3.019531 L 5.277344 3.847656 L 7.472656 1.65625 L 9.722656 3.90625 Z M 10.546875 3.074219 "/>
</g>
</svg>
