<?xml version="1.0" encoding="UTF-8"?>
<svg xmlns="http://www.w3.org/2000/svg" xmlns:xlink="http://www.w3.org/1999/xlink" width="16pt" height="16pt" viewBox="0 0 16 16" version="1.1">
<g id="surface1">
<path style=" stroke:none;fill-rule:nonzero;fill:rgb(0%,0%,0%);fill-opacity:1;" d="M 15.226562 7.355469 L 0.644531 7.355469 C 0.289062 7.355469 0 7.644531 0 8 C 0 8.355469 0.289062 8.644531 0.644531 8.644531 L 15.226562 8.644531 C 15.582031 8.644531 15.871094 8.355469 15.871094 8 C 15.871094 7.644531 15.582031 7.355469 15.226562 7.355469 Z M 15.226562 7.355469 "/>
<path style=" stroke:none;fill-rule:nonzero;fill:rgb(0%,0%,0%);fill-opacity:1;" d="M 15.8125 7.542969 L 9.507812 1.238281 C 9.253906 0.988281 8.847656 0.988281 8.597656 1.238281 C 8.34375 1.492188 8.34375 1.898438 8.597656 2.148438 L 14.445312 8 L 8.597656 13.851562 C 8.34375 14.101562 8.34375 14.507812 8.597656 14.761719 C 8.722656 14.886719 8.886719 14.949219 9.050781 14.949219 C 9.214844 14.949219 9.378906 14.886719 9.507812 14.761719 L 15.8125 8.453125 C 16.0625 8.203125 16.0625 7.796875 15.8125 7.542969 Z M 15.8125 7.542969 "/>
</g>
</svg>
