<?xml version="1.0" encoding="UTF-8"?>
<svg xmlns="http://www.w3.org/2000/svg" xmlns:xlink="http://www.w3.org/1999/xlink" width="22pt" height="22pt" viewBox="0 0 22 22" version="1.1">
<g id="surface1">
<path style=" stroke:none;fill-rule:nonzero;fill:rgb(0%,0%,0%);fill-opacity:1;" d="M 21.859375 10.570312 C 21.664062 10.304688 16.980469 3.988281 11 3.988281 C 5.019531 3.988281 0.335938 10.304688 0.140625 10.570312 C -0.046875 10.828125 -0.046875 11.171875 0.140625 11.429688 C 0.335938 11.695312 5.019531 18.011719 11 18.011719 C 16.980469 18.011719 21.664062 11.695312 21.859375 11.429688 C 22.046875 11.171875 22.046875 10.828125 21.859375 10.570312 Z M 11 16.558594 C 6.59375 16.558594 2.777344 12.371094 1.648438 11 C 2.777344 9.628906 6.585938 5.441406 11 5.441406 C 15.40625 5.441406 19.21875 9.628906 20.351562 11 C 19.222656 12.371094 15.414062 16.558594 11 16.558594 Z M 11 16.558594 "/>
<path style=" stroke:none;fill-rule:nonzero;fill:rgb(0%,0%,0%);fill-opacity:1;" d="M 11 6.648438 C 8.601562 6.648438 6.648438 8.601562 6.648438 11 C 6.648438 13.398438 8.601562 15.351562 11 15.351562 C 13.398438 15.351562 15.351562 13.398438 15.351562 11 C 15.351562 8.601562 13.398438 6.648438 11 6.648438 Z M 11 13.902344 C 9.398438 13.902344 8.097656 12.601562 8.097656 11 C 8.097656 9.398438 9.398438 8.097656 11 8.097656 C 12.597656 8.097656 13.902344 9.398438 13.902344 11 C 13.902344 12.601562 12.601562 13.902344 11 13.902344 Z M 11 13.902344 "/>
</g>
</svg>
